<mxfile host="app.diagrams.net" agent="Mozilla/5.0 (Windows NT 10.0; Win64; x64) AppleWebKit/537.36 (KHTML, like Gecko) Chrome/128.0.0.0 Safari/537.36" version="24.7.16">
  <diagram name="Страница — 1" id="8vJl4SW_7vJbYwFjOEnA">
    <mxGraphModel dx="1760" dy="936" grid="1" gridSize="10" guides="1" tooltips="1" connect="1" arrows="1" fold="1" page="1" pageScale="1" pageWidth="827" pageHeight="1169" math="0" shadow="0">
      <root>
        <mxCell id="0" />
        <mxCell id="1" parent="0" />
        <mxCell id="l6Ie-hOMZl8iRi3eWasL-42" style="edgeStyle=orthogonalEdgeStyle;rounded=0;orthogonalLoop=1;jettySize=auto;html=1;entryX=0.5;entryY=0;entryDx=0;entryDy=0;" edge="1" parent="1" source="l6Ie-hOMZl8iRi3eWasL-1" target="l6Ie-hOMZl8iRi3eWasL-2">
          <mxGeometry relative="1" as="geometry" />
        </mxCell>
        <mxCell id="l6Ie-hOMZl8iRi3eWasL-1" value="Inicio Activ19T1" style="rounded=1;whiteSpace=wrap;html=1;" vertex="1" parent="1">
          <mxGeometry x="354" y="20" width="120" height="60" as="geometry" />
        </mxCell>
        <mxCell id="l6Ie-hOMZl8iRi3eWasL-43" style="edgeStyle=orthogonalEdgeStyle;rounded=0;orthogonalLoop=1;jettySize=auto;html=1;entryX=0.5;entryY=0;entryDx=0;entryDy=0;" edge="1" parent="1" source="l6Ie-hOMZl8iRi3eWasL-2" target="l6Ie-hOMZl8iRi3eWasL-3">
          <mxGeometry relative="1" as="geometry" />
        </mxCell>
        <mxCell id="l6Ie-hOMZl8iRi3eWasL-2" value="Leer dia" style="shape=parallelogram;perimeter=parallelogramPerimeter;whiteSpace=wrap;html=1;fixedSize=1;" vertex="1" parent="1">
          <mxGeometry x="354" y="100" width="120" height="60" as="geometry" />
        </mxCell>
        <mxCell id="l6Ie-hOMZl8iRi3eWasL-44" style="edgeStyle=orthogonalEdgeStyle;rounded=0;orthogonalLoop=1;jettySize=auto;html=1;entryX=0.5;entryY=0;entryDx=0;entryDy=0;" edge="1" parent="1" source="l6Ie-hOMZl8iRi3eWasL-3" target="l6Ie-hOMZl8iRi3eWasL-4">
          <mxGeometry relative="1" as="geometry" />
        </mxCell>
        <mxCell id="l6Ie-hOMZl8iRi3eWasL-3" value="Leer mes" style="shape=parallelogram;perimeter=parallelogramPerimeter;whiteSpace=wrap;html=1;fixedSize=1;" vertex="1" parent="1">
          <mxGeometry x="354" y="180" width="120" height="60" as="geometry" />
        </mxCell>
        <mxCell id="l6Ie-hOMZl8iRi3eWasL-46" style="edgeStyle=orthogonalEdgeStyle;rounded=0;orthogonalLoop=1;jettySize=auto;html=1;entryX=0.5;entryY=0;entryDx=0;entryDy=0;" edge="1" parent="1" source="l6Ie-hOMZl8iRi3eWasL-4" target="l6Ie-hOMZl8iRi3eWasL-5">
          <mxGeometry relative="1" as="geometry" />
        </mxCell>
        <mxCell id="l6Ie-hOMZl8iRi3eWasL-4" value="Leer anyo" style="shape=parallelogram;perimeter=parallelogramPerimeter;whiteSpace=wrap;html=1;fixedSize=1;" vertex="1" parent="1">
          <mxGeometry x="354" y="260" width="120" height="60" as="geometry" />
        </mxCell>
        <mxCell id="l6Ie-hOMZl8iRi3eWasL-45" style="edgeStyle=orthogonalEdgeStyle;rounded=0;orthogonalLoop=1;jettySize=auto;html=1;" edge="1" parent="1" source="l6Ie-hOMZl8iRi3eWasL-5" target="l6Ie-hOMZl8iRi3eWasL-6">
          <mxGeometry relative="1" as="geometry" />
        </mxCell>
        <mxCell id="l6Ie-hOMZl8iRi3eWasL-48" style="edgeStyle=orthogonalEdgeStyle;rounded=0;orthogonalLoop=1;jettySize=auto;html=1;entryX=0.5;entryY=0;entryDx=0;entryDy=0;" edge="1" parent="1" source="l6Ie-hOMZl8iRi3eWasL-5" target="l6Ie-hOMZl8iRi3eWasL-9">
          <mxGeometry relative="1" as="geometry" />
        </mxCell>
        <mxCell id="l6Ie-hOMZl8iRi3eWasL-5" value="La fecha es valida?" style="rhombus;whiteSpace=wrap;html=1;" vertex="1" parent="1">
          <mxGeometry x="342" y="340" width="144" height="80" as="geometry" />
        </mxCell>
        <mxCell id="l6Ie-hOMZl8iRi3eWasL-74" style="edgeStyle=orthogonalEdgeStyle;rounded=0;orthogonalLoop=1;jettySize=auto;html=1;entryX=0;entryY=0.5;entryDx=0;entryDy=0;" edge="1" parent="1" source="l6Ie-hOMZl8iRi3eWasL-6" target="l6Ie-hOMZl8iRi3eWasL-39">
          <mxGeometry relative="1" as="geometry">
            <Array as="points">
              <mxPoint x="10" y="380" />
              <mxPoint x="10" y="1120" />
            </Array>
          </mxGeometry>
        </mxCell>
        <mxCell id="l6Ie-hOMZl8iRi3eWasL-6" value="Escribir&lt;br&gt;&quot;fecha no es valida&quot;" style="shape=parallelogram;perimeter=parallelogramPerimeter;whiteSpace=wrap;html=1;fixedSize=1;" vertex="1" parent="1">
          <mxGeometry x="130" y="350" width="140" height="60" as="geometry" />
        </mxCell>
        <mxCell id="l6Ie-hOMZl8iRi3eWasL-9" value="Mes:" style="rhombus;whiteSpace=wrap;html=1;" vertex="1" parent="1">
          <mxGeometry x="342" y="440" width="144" height="80" as="geometry" />
        </mxCell>
        <mxCell id="l6Ie-hOMZl8iRi3eWasL-10" value="mesT = &quot;Febrero&quot;" style="rounded=0;whiteSpace=wrap;html=1;" vertex="1" parent="1">
          <mxGeometry x="190" y="600" width="120" height="60" as="geometry" />
        </mxCell>
        <mxCell id="l6Ie-hOMZl8iRi3eWasL-68" style="edgeStyle=orthogonalEdgeStyle;rounded=0;orthogonalLoop=1;jettySize=auto;html=1;entryX=0;entryY=1;entryDx=0;entryDy=0;" edge="1" parent="1" source="l6Ie-hOMZl8iRi3eWasL-11" target="l6Ie-hOMZl8iRi3eWasL-40">
          <mxGeometry relative="1" as="geometry">
            <Array as="points">
              <mxPoint x="20" y="550" />
              <mxPoint x="20" y="1070" />
            </Array>
          </mxGeometry>
        </mxCell>
        <mxCell id="l6Ie-hOMZl8iRi3eWasL-11" value="mesT = &quot;Enero&quot;" style="rounded=0;whiteSpace=wrap;html=1;" vertex="1" parent="1">
          <mxGeometry x="190" y="520" width="120" height="60" as="geometry" />
        </mxCell>
        <mxCell id="l6Ie-hOMZl8iRi3eWasL-70" style="edgeStyle=orthogonalEdgeStyle;rounded=0;orthogonalLoop=1;jettySize=auto;html=1;entryX=0;entryY=0.75;entryDx=0;entryDy=0;" edge="1" parent="1" source="l6Ie-hOMZl8iRi3eWasL-14" target="l6Ie-hOMZl8iRi3eWasL-40">
          <mxGeometry relative="1" as="geometry">
            <mxPoint x="30" y="710" as="targetPoint" />
            <Array as="points">
              <mxPoint x="40" y="710" />
              <mxPoint x="40" y="1054" />
            </Array>
          </mxGeometry>
        </mxCell>
        <mxCell id="l6Ie-hOMZl8iRi3eWasL-14" value="mesT = &quot;Marzo&quot;" style="rounded=0;whiteSpace=wrap;html=1;" vertex="1" parent="1">
          <mxGeometry x="190" y="680" width="120" height="60" as="geometry" />
        </mxCell>
        <mxCell id="l6Ie-hOMZl8iRi3eWasL-71" style="edgeStyle=orthogonalEdgeStyle;rounded=0;orthogonalLoop=1;jettySize=auto;html=1;entryX=0;entryY=0.5;entryDx=0;entryDy=0;" edge="1" parent="1" source="l6Ie-hOMZl8iRi3eWasL-15" target="l6Ie-hOMZl8iRi3eWasL-40">
          <mxGeometry relative="1" as="geometry">
            <mxPoint x="40" y="790" as="targetPoint" />
            <Array as="points">
              <mxPoint x="50" y="790" />
              <mxPoint x="50" y="1040" />
            </Array>
          </mxGeometry>
        </mxCell>
        <mxCell id="l6Ie-hOMZl8iRi3eWasL-15" value="mesT = &quot;Abril&quot;" style="rounded=0;whiteSpace=wrap;html=1;" vertex="1" parent="1">
          <mxGeometry x="190" y="760" width="120" height="60" as="geometry" />
        </mxCell>
        <mxCell id="l6Ie-hOMZl8iRi3eWasL-72" style="edgeStyle=orthogonalEdgeStyle;rounded=0;orthogonalLoop=1;jettySize=auto;html=1;entryX=0;entryY=0.25;entryDx=0;entryDy=0;" edge="1" parent="1" source="l6Ie-hOMZl8iRi3eWasL-16" target="l6Ie-hOMZl8iRi3eWasL-40">
          <mxGeometry relative="1" as="geometry">
            <Array as="points">
              <mxPoint x="60" y="860" />
              <mxPoint x="60" y="1027" />
            </Array>
          </mxGeometry>
        </mxCell>
        <mxCell id="l6Ie-hOMZl8iRi3eWasL-16" value="mesT = &quot;Mayo&quot;" style="rounded=0;whiteSpace=wrap;html=1;" vertex="1" parent="1">
          <mxGeometry x="190" y="830" width="120" height="60" as="geometry" />
        </mxCell>
        <mxCell id="l6Ie-hOMZl8iRi3eWasL-73" style="edgeStyle=orthogonalEdgeStyle;rounded=0;orthogonalLoop=1;jettySize=auto;html=1;entryX=0;entryY=0;entryDx=0;entryDy=0;" edge="1" parent="1" source="l6Ie-hOMZl8iRi3eWasL-17" target="l6Ie-hOMZl8iRi3eWasL-40">
          <mxGeometry relative="1" as="geometry">
            <Array as="points">
              <mxPoint x="70" y="940" />
              <mxPoint x="70" y="1016" />
            </Array>
          </mxGeometry>
        </mxCell>
        <mxCell id="l6Ie-hOMZl8iRi3eWasL-17" value="&lt;br&gt;&lt;span style=&quot;color: rgb(0, 0, 0); font-family: Helvetica; font-size: 12px; font-style: normal; font-variant-ligatures: normal; font-variant-caps: normal; font-weight: 400; letter-spacing: normal; orphans: 2; text-align: center; text-indent: 0px; text-transform: none; widows: 2; word-spacing: 0px; -webkit-text-stroke-width: 0px; white-space: normal; background-color: rgb(251, 251, 251); text-decoration-thickness: initial; text-decoration-style: initial; text-decoration-color: initial; display: inline !important; float: none;&quot;&gt;mesT = &quot;Junio&quot;&lt;/span&gt;&lt;div&gt;&lt;br/&gt;&lt;/div&gt;" style="rounded=0;whiteSpace=wrap;html=1;" vertex="1" parent="1">
          <mxGeometry x="190" y="910" width="120" height="60" as="geometry" />
        </mxCell>
        <mxCell id="l6Ie-hOMZl8iRi3eWasL-63" style="edgeStyle=orthogonalEdgeStyle;rounded=0;orthogonalLoop=1;jettySize=auto;html=1;entryX=1;entryY=1;entryDx=0;entryDy=0;" edge="1" parent="1" target="l6Ie-hOMZl8iRi3eWasL-40">
          <mxGeometry relative="1" as="geometry">
            <mxPoint x="640" y="627.9985714285714" as="sourcePoint" />
            <mxPoint x="474" y="1132.97" as="targetPoint" />
            <Array as="points">
              <mxPoint x="800" y="628" />
              <mxPoint x="800" y="1064" />
              <mxPoint x="492" y="1064" />
            </Array>
          </mxGeometry>
        </mxCell>
        <mxCell id="l6Ie-hOMZl8iRi3eWasL-20" value="mesT = &quot;Agosto&quot;" style="rounded=0;whiteSpace=wrap;html=1;" vertex="1" parent="1">
          <mxGeometry x="520" y="600" width="120" height="60" as="geometry" />
        </mxCell>
        <mxCell id="l6Ie-hOMZl8iRi3eWasL-64" style="edgeStyle=orthogonalEdgeStyle;rounded=0;orthogonalLoop=1;jettySize=auto;html=1;entryX=1;entryY=0.75;entryDx=0;entryDy=0;" edge="1" parent="1" target="l6Ie-hOMZl8iRi3eWasL-40">
          <mxGeometry relative="1" as="geometry">
            <mxPoint x="640" y="717.998823529412" as="sourcePoint" />
            <mxPoint x="473.9999999999998" y="1127.94" as="targetPoint" />
            <Array as="points">
              <mxPoint x="790" y="718" />
              <mxPoint x="790" y="1053" />
            </Array>
          </mxGeometry>
        </mxCell>
        <mxCell id="l6Ie-hOMZl8iRi3eWasL-21" value="mesT = &quot;Septiembre&quot;" style="rounded=0;whiteSpace=wrap;html=1;" vertex="1" parent="1">
          <mxGeometry x="520" y="680" width="120" height="60" as="geometry" />
        </mxCell>
        <mxCell id="l6Ie-hOMZl8iRi3eWasL-65" style="edgeStyle=orthogonalEdgeStyle;rounded=0;orthogonalLoop=1;jettySize=auto;html=1;entryX=1;entryY=0.5;entryDx=0;entryDy=0;" edge="1" parent="1" source="l6Ie-hOMZl8iRi3eWasL-22" target="l6Ie-hOMZl8iRi3eWasL-40">
          <mxGeometry relative="1" as="geometry">
            <Array as="points">
              <mxPoint x="780" y="790" />
              <mxPoint x="780" y="1040" />
            </Array>
          </mxGeometry>
        </mxCell>
        <mxCell id="l6Ie-hOMZl8iRi3eWasL-22" value="mesT = &quot;Octubre&quot;" style="rounded=0;whiteSpace=wrap;html=1;" vertex="1" parent="1">
          <mxGeometry x="520" y="760" width="120" height="60" as="geometry" />
        </mxCell>
        <mxCell id="l6Ie-hOMZl8iRi3eWasL-66" style="edgeStyle=orthogonalEdgeStyle;rounded=0;orthogonalLoop=1;jettySize=auto;html=1;entryX=1;entryY=0.25;entryDx=0;entryDy=0;" edge="1" parent="1" source="l6Ie-hOMZl8iRi3eWasL-23" target="l6Ie-hOMZl8iRi3eWasL-40">
          <mxGeometry relative="1" as="geometry">
            <Array as="points">
              <mxPoint x="770" y="860" />
              <mxPoint x="770" y="1026" />
            </Array>
          </mxGeometry>
        </mxCell>
        <mxCell id="l6Ie-hOMZl8iRi3eWasL-23" value="mesT = &quot;Noviembre&quot;" style="rounded=0;whiteSpace=wrap;html=1;" vertex="1" parent="1">
          <mxGeometry x="520" y="830" width="120" height="60" as="geometry" />
        </mxCell>
        <mxCell id="l6Ie-hOMZl8iRi3eWasL-67" style="edgeStyle=orthogonalEdgeStyle;rounded=0;orthogonalLoop=1;jettySize=auto;html=1;entryX=1;entryY=0;entryDx=0;entryDy=0;" edge="1" parent="1" source="l6Ie-hOMZl8iRi3eWasL-24" target="l6Ie-hOMZl8iRi3eWasL-40">
          <mxGeometry relative="1" as="geometry">
            <Array as="points">
              <mxPoint x="760" y="940" />
              <mxPoint x="760" y="1010" />
            </Array>
          </mxGeometry>
        </mxCell>
        <mxCell id="l6Ie-hOMZl8iRi3eWasL-24" value="mesT = &quot;Deciebre&quot;" style="rounded=0;whiteSpace=wrap;html=1;" vertex="1" parent="1">
          <mxGeometry x="520" y="910" width="120" height="60" as="geometry" />
        </mxCell>
        <mxCell id="l6Ie-hOMZl8iRi3eWasL-62" style="edgeStyle=orthogonalEdgeStyle;rounded=0;orthogonalLoop=1;jettySize=auto;html=1;entryX=0.844;entryY=1.021;entryDx=0;entryDy=0;entryPerimeter=0;" edge="1" parent="1" target="l6Ie-hOMZl8iRi3eWasL-40">
          <mxGeometry relative="1" as="geometry">
            <mxPoint x="640" y="569.9988235294118" as="sourcePoint" />
            <mxPoint x="473.9999999999998" y="1139.94" as="targetPoint" />
            <Array as="points">
              <mxPoint x="810" y="570" />
              <mxPoint x="810" y="1090" />
              <mxPoint x="480" y="1090" />
            </Array>
          </mxGeometry>
        </mxCell>
        <mxCell id="l6Ie-hOMZl8iRi3eWasL-25" value="mesT = &quot;Julio&quot;" style="rounded=0;whiteSpace=wrap;html=1;" vertex="1" parent="1">
          <mxGeometry x="520" y="520" width="120" height="60" as="geometry" />
        </mxCell>
        <mxCell id="l6Ie-hOMZl8iRi3eWasL-26" value="" style="endArrow=none;html=1;rounded=0;entryX=0.5;entryY=1;entryDx=0;entryDy=0;" edge="1" parent="1" target="l6Ie-hOMZl8iRi3eWasL-9">
          <mxGeometry width="50" height="50" relative="1" as="geometry">
            <mxPoint x="414" y="940" as="sourcePoint" />
            <mxPoint x="420" y="740" as="targetPoint" />
          </mxGeometry>
        </mxCell>
        <mxCell id="l6Ie-hOMZl8iRi3eWasL-27" value="" style="endArrow=classic;html=1;rounded=0;entryX=1;entryY=0.5;entryDx=0;entryDy=0;" edge="1" parent="1" target="l6Ie-hOMZl8iRi3eWasL-17">
          <mxGeometry width="50" height="50" relative="1" as="geometry">
            <mxPoint x="410" y="940" as="sourcePoint" />
            <mxPoint x="440" y="870" as="targetPoint" />
          </mxGeometry>
        </mxCell>
        <mxCell id="l6Ie-hOMZl8iRi3eWasL-28" value="" style="endArrow=classic;html=1;rounded=0;entryX=0;entryY=0.5;entryDx=0;entryDy=0;" edge="1" parent="1" target="l6Ie-hOMZl8iRi3eWasL-24">
          <mxGeometry width="50" height="50" relative="1" as="geometry">
            <mxPoint x="410" y="940" as="sourcePoint" />
            <mxPoint x="430" y="860" as="targetPoint" />
          </mxGeometry>
        </mxCell>
        <mxCell id="l6Ie-hOMZl8iRi3eWasL-29" value="" style="endArrow=classic;html=1;rounded=0;entryX=1;entryY=0.5;entryDx=0;entryDy=0;" edge="1" parent="1">
          <mxGeometry width="50" height="50" relative="1" as="geometry">
            <mxPoint x="410" y="859.67" as="sourcePoint" />
            <mxPoint x="310" y="859.67" as="targetPoint" />
          </mxGeometry>
        </mxCell>
        <mxCell id="l6Ie-hOMZl8iRi3eWasL-30" value="" style="endArrow=classic;html=1;rounded=0;entryX=0;entryY=0.5;entryDx=0;entryDy=0;" edge="1" parent="1">
          <mxGeometry width="50" height="50" relative="1" as="geometry">
            <mxPoint x="410" y="859.67" as="sourcePoint" />
            <mxPoint x="520" y="859.67" as="targetPoint" />
          </mxGeometry>
        </mxCell>
        <mxCell id="l6Ie-hOMZl8iRi3eWasL-31" value="" style="endArrow=classic;html=1;rounded=0;entryX=1;entryY=0.5;entryDx=0;entryDy=0;" edge="1" parent="1">
          <mxGeometry width="50" height="50" relative="1" as="geometry">
            <mxPoint x="410" y="789.67" as="sourcePoint" />
            <mxPoint x="310" y="789.67" as="targetPoint" />
          </mxGeometry>
        </mxCell>
        <mxCell id="l6Ie-hOMZl8iRi3eWasL-32" value="" style="endArrow=classic;html=1;rounded=0;entryX=0;entryY=0.5;entryDx=0;entryDy=0;" edge="1" parent="1">
          <mxGeometry width="50" height="50" relative="1" as="geometry">
            <mxPoint x="410" y="789.67" as="sourcePoint" />
            <mxPoint x="520" y="789.67" as="targetPoint" />
          </mxGeometry>
        </mxCell>
        <mxCell id="l6Ie-hOMZl8iRi3eWasL-33" value="" style="endArrow=classic;html=1;rounded=0;entryX=1;entryY=0.5;entryDx=0;entryDy=0;" edge="1" parent="1">
          <mxGeometry width="50" height="50" relative="1" as="geometry">
            <mxPoint x="410" y="709.67" as="sourcePoint" />
            <mxPoint x="310" y="709.67" as="targetPoint" />
          </mxGeometry>
        </mxCell>
        <mxCell id="l6Ie-hOMZl8iRi3eWasL-34" value="" style="endArrow=classic;html=1;rounded=0;entryX=0;entryY=0.5;entryDx=0;entryDy=0;" edge="1" parent="1">
          <mxGeometry width="50" height="50" relative="1" as="geometry">
            <mxPoint x="410" y="709.67" as="sourcePoint" />
            <mxPoint x="520" y="709.67" as="targetPoint" />
          </mxGeometry>
        </mxCell>
        <mxCell id="l6Ie-hOMZl8iRi3eWasL-35" value="" style="endArrow=classic;html=1;rounded=0;entryX=1;entryY=0.5;entryDx=0;entryDy=0;" edge="1" parent="1">
          <mxGeometry width="50" height="50" relative="1" as="geometry">
            <mxPoint x="409" y="629.67" as="sourcePoint" />
            <mxPoint x="309" y="629.67" as="targetPoint" />
          </mxGeometry>
        </mxCell>
        <mxCell id="l6Ie-hOMZl8iRi3eWasL-36" value="" style="endArrow=classic;html=1;rounded=0;entryX=0;entryY=0.5;entryDx=0;entryDy=0;" edge="1" parent="1">
          <mxGeometry width="50" height="50" relative="1" as="geometry">
            <mxPoint x="409" y="629.67" as="sourcePoint" />
            <mxPoint x="519" y="629.67" as="targetPoint" />
          </mxGeometry>
        </mxCell>
        <mxCell id="l6Ie-hOMZl8iRi3eWasL-37" value="" style="endArrow=classic;html=1;rounded=0;entryX=1;entryY=0.5;entryDx=0;entryDy=0;" edge="1" parent="1">
          <mxGeometry width="50" height="50" relative="1" as="geometry">
            <mxPoint x="410" y="549.67" as="sourcePoint" />
            <mxPoint x="310" y="549.67" as="targetPoint" />
          </mxGeometry>
        </mxCell>
        <mxCell id="l6Ie-hOMZl8iRi3eWasL-38" value="" style="endArrow=classic;html=1;rounded=0;entryX=0;entryY=0.5;entryDx=0;entryDy=0;" edge="1" parent="1">
          <mxGeometry width="50" height="50" relative="1" as="geometry">
            <mxPoint x="410" y="549.67" as="sourcePoint" />
            <mxPoint x="520" y="549.67" as="targetPoint" />
          </mxGeometry>
        </mxCell>
        <mxCell id="l6Ie-hOMZl8iRi3eWasL-39" value="Fin Activ19T1" style="rounded=1;whiteSpace=wrap;html=1;" vertex="1" parent="1">
          <mxGeometry x="354" y="1090" width="120" height="60" as="geometry" />
        </mxCell>
        <mxCell id="l6Ie-hOMZl8iRi3eWasL-41" style="edgeStyle=orthogonalEdgeStyle;rounded=0;orthogonalLoop=1;jettySize=auto;html=1;entryX=0.5;entryY=0;entryDx=0;entryDy=0;" edge="1" parent="1" source="l6Ie-hOMZl8iRi3eWasL-40" target="l6Ie-hOMZl8iRi3eWasL-39">
          <mxGeometry relative="1" as="geometry" />
        </mxCell>
        <mxCell id="l6Ie-hOMZl8iRi3eWasL-40" value="Escribir&lt;br&gt;dia+&quot;de&quot;+&quot;mesT+&quot;del&quot;+anyo" style="shape=parallelogram;perimeter=parallelogramPerimeter;whiteSpace=wrap;html=1;fixedSize=1;" vertex="1" parent="1">
          <mxGeometry x="317.5" y="1010" width="193" height="60" as="geometry" />
        </mxCell>
        <mxCell id="l6Ie-hOMZl8iRi3eWasL-47" value="No" style="text;html=1;align=center;verticalAlign=middle;whiteSpace=wrap;rounded=0;" vertex="1" parent="1">
          <mxGeometry x="282" y="350" width="60" height="30" as="geometry" />
        </mxCell>
        <mxCell id="l6Ie-hOMZl8iRi3eWasL-49" value="Si" style="text;html=1;align=center;verticalAlign=middle;resizable=0;points=[];autosize=1;strokeColor=none;fillColor=none;" vertex="1" parent="1">
          <mxGeometry x="435" y="418" width="30" height="30" as="geometry" />
        </mxCell>
        <mxCell id="l6Ie-hOMZl8iRi3eWasL-50" value="1" style="text;html=1;align=center;verticalAlign=middle;resizable=0;points=[];autosize=1;strokeColor=none;fillColor=none;" vertex="1" parent="1">
          <mxGeometry x="315" y="518" width="30" height="30" as="geometry" />
        </mxCell>
        <mxCell id="l6Ie-hOMZl8iRi3eWasL-51" value="2" style="text;html=1;align=center;verticalAlign=middle;resizable=0;points=[];autosize=1;strokeColor=none;fillColor=none;" vertex="1" parent="1">
          <mxGeometry x="317.5" y="600" width="30" height="30" as="geometry" />
        </mxCell>
        <mxCell id="l6Ie-hOMZl8iRi3eWasL-52" value="3" style="text;html=1;align=center;verticalAlign=middle;resizable=0;points=[];autosize=1;strokeColor=none;fillColor=none;" vertex="1" parent="1">
          <mxGeometry x="315" y="678" width="30" height="30" as="geometry" />
        </mxCell>
        <mxCell id="l6Ie-hOMZl8iRi3eWasL-53" value="4" style="text;html=1;align=center;verticalAlign=middle;resizable=0;points=[];autosize=1;strokeColor=none;fillColor=none;" vertex="1" parent="1">
          <mxGeometry x="315" y="758" width="30" height="30" as="geometry" />
        </mxCell>
        <mxCell id="l6Ie-hOMZl8iRi3eWasL-54" value="5" style="text;html=1;align=center;verticalAlign=middle;resizable=0;points=[];autosize=1;strokeColor=none;fillColor=none;" vertex="1" parent="1">
          <mxGeometry x="315" y="828" width="30" height="30" as="geometry" />
        </mxCell>
        <mxCell id="l6Ie-hOMZl8iRi3eWasL-55" value="6" style="text;html=1;align=center;verticalAlign=middle;resizable=0;points=[];autosize=1;strokeColor=none;fillColor=none;" vertex="1" parent="1">
          <mxGeometry x="315" y="908" width="30" height="30" as="geometry" />
        </mxCell>
        <mxCell id="l6Ie-hOMZl8iRi3eWasL-56" value="7" style="text;html=1;align=center;verticalAlign=middle;resizable=0;points=[];autosize=1;strokeColor=none;fillColor=none;" vertex="1" parent="1">
          <mxGeometry x="475" y="518" width="30" height="30" as="geometry" />
        </mxCell>
        <mxCell id="l6Ie-hOMZl8iRi3eWasL-57" value="8" style="text;html=1;align=center;verticalAlign=middle;resizable=0;points=[];autosize=1;strokeColor=none;fillColor=none;" vertex="1" parent="1">
          <mxGeometry x="475" y="598" width="30" height="30" as="geometry" />
        </mxCell>
        <mxCell id="l6Ie-hOMZl8iRi3eWasL-58" value="9" style="text;html=1;align=center;verticalAlign=middle;resizable=0;points=[];autosize=1;strokeColor=none;fillColor=none;" vertex="1" parent="1">
          <mxGeometry x="486" y="680" width="30" height="30" as="geometry" />
        </mxCell>
        <mxCell id="l6Ie-hOMZl8iRi3eWasL-59" value="10" style="text;html=1;align=center;verticalAlign=middle;resizable=0;points=[];autosize=1;strokeColor=none;fillColor=none;" vertex="1" parent="1">
          <mxGeometry x="480" y="758" width="40" height="30" as="geometry" />
        </mxCell>
        <mxCell id="l6Ie-hOMZl8iRi3eWasL-60" value="11" style="text;html=1;align=center;verticalAlign=middle;resizable=0;points=[];autosize=1;strokeColor=none;fillColor=none;" vertex="1" parent="1">
          <mxGeometry x="480" y="828" width="40" height="30" as="geometry" />
        </mxCell>
        <mxCell id="l6Ie-hOMZl8iRi3eWasL-61" value="12" style="text;html=1;align=center;verticalAlign=middle;resizable=0;points=[];autosize=1;strokeColor=none;fillColor=none;" vertex="1" parent="1">
          <mxGeometry x="480" y="908" width="40" height="30" as="geometry" />
        </mxCell>
        <mxCell id="l6Ie-hOMZl8iRi3eWasL-69" style="edgeStyle=orthogonalEdgeStyle;rounded=0;orthogonalLoop=1;jettySize=auto;html=1;" edge="1" parent="1" source="l6Ie-hOMZl8iRi3eWasL-10">
          <mxGeometry relative="1" as="geometry">
            <mxPoint x="323" y="1060" as="targetPoint" />
            <Array as="points">
              <mxPoint x="30" y="630" />
              <mxPoint x="30" y="1060" />
            </Array>
          </mxGeometry>
        </mxCell>
      </root>
    </mxGraphModel>
  </diagram>
</mxfile>
